<svg xmlns="http://www.w3.org/2000/svg" xmlns:xlink="http://www.w3.org/1999/xlink" version="1.1" width="256" height="256" viewBox="0 0 256 256" xml:space="preserve">

<defs>
</defs>
<g style="stroke: none; stroke-width: 0; stroke-dasharray: none; stroke-linecap: butt; stroke-linejoin: miter; stroke-miterlimit: 10; fill: none; fill-rule: nonzero; opacity: 1;" transform="translate(1.4065934065934016 1.4065934065934016) scale(2.81 2.81)" >
	<path d="M 89.138 21.425 c -0.824 -1.103 -2.087 -1.736 -3.464 -1.736 H 17.129 l -0.886 -3.413 c -0.704 -2.713 -3.153 -4.607 -5.956 -4.607 H 1 c -0.552 0 -1 0.448 -1 1 c 0 0.552 0.448 1 1 1 h 9.287 c 1.892 0 3.545 1.279 4.021 3.11 l 11.165 42.995 c 0.114 0.441 0.512 0.749 0.968 0.749 h 52.201 c 0.553 0 1 -0.447 1 -1 s -0.447 -1 -1 -1 H 27.214 l -2.398 -9.232 h 53.3 c 2.704 0 5.128 -1.812 5.894 -4.404 l 5.809 -19.649 C 90.21 23.918 89.961 22.528 89.138 21.425 z M 87.901 24.671 l -5.809 19.649 c -0.518 1.75 -2.152 2.972 -3.977 2.972 H 24.297 l -6.649 -25.602 h 68.025 c 0.74 0 1.418 0.34 1.861 0.933 C 87.977 23.215 88.111 23.961 87.901 24.671 z" style="stroke: none; stroke-width: 1; stroke-dasharray: none; stroke-linecap: butt; stroke-linejoin: miter; stroke-miterlimit: 10; fill: rgb(0,0,0); fill-rule: nonzero; opacity: 1;" transform=" matrix(1 0 0 1 0 0) " stroke-linecap="round" />
	<path d="M 35.47 78.331 c -3.762 0 -6.822 -3.061 -6.822 -6.822 s 3.061 -6.822 6.822 -6.822 c 3.762 0 6.823 3.061 6.823 6.822 S 39.232 78.331 35.47 78.331 z M 35.47 66.686 c -2.659 0 -4.822 2.163 -4.822 4.822 c 0 2.659 2.163 4.822 4.822 4.822 s 4.823 -2.163 4.823 -4.822 C 40.293 68.849 38.129 66.686 35.47 66.686 z" style="stroke: none; stroke-width: 1; stroke-dasharray: none; stroke-linecap: butt; stroke-linejoin: miter; stroke-miterlimit: 10; fill: rgb(0,0,0); fill-rule: nonzero; opacity: 1;" transform=" matrix(1 0 0 1 0 0) " stroke-linecap="round" />
	<path d="M 68.27 78.331 c -3.762 0 -6.822 -3.061 -6.822 -6.822 s 3.061 -6.822 6.822 -6.822 c 3.763 0 6.823 3.061 6.823 6.822 S 72.032 78.331 68.27 78.331 z M 68.27 66.686 c -2.659 0 -4.822 2.163 -4.822 4.822 c 0 2.659 2.163 4.822 4.822 4.822 c 2.659 0 4.823 -2.163 4.823 -4.822 C 73.093 68.849 70.929 66.686 68.27 66.686 z" style="stroke: none; stroke-width: 1; stroke-dasharray: none; stroke-linecap: butt; stroke-linejoin: miter; stroke-miterlimit: 10; fill: rgb(0,0,0); fill-rule: nonzero; opacity: 1;" transform=" matrix(1 0 0 1 0 0) " stroke-linecap="round" />
</g>
</svg>